<svg width="400" height="300" viewBox="0 0 400 300" fill="none" xmlns="http://www.w3.org/2000/svg">
  <rect width="400" height="300" fill="#1f2937"/>
  <rect x="50" y="50" width="300" height="200" rx="8" fill="#374151"/>
  <path d="M80 120 L120 100 L160 130 L200 110 L240 140 L280 120 L320 150" stroke="#10b981" stroke-width="3" fill="none"/>
  <circle cx="80" cy="120" r="4" fill="#10b981"/>
  <circle cx="120" cy="100" r="4" fill="#10b981"/>
  <circle cx="160" cy="130" r="4" fill="#10b981"/>
  <circle cx="200" cy="110" r="4" fill="#10b981"/>
  <circle cx="240" cy="140" r="4" fill="#10b981"/>
  <circle cx="280" cy="120" r="4" fill="#10b981"/>
  <circle cx="320" cy="150" r="4" fill="#10b981"/>
  <rect x="80" y="170" width="40" height="30" rx="4" fill="#60a5fa" opacity="0.7"/>
  <rect x="140" y="180" width="50" height="20" rx="4" fill="#f59e0b" opacity="0.7"/>
  <rect x="210" y="160" width="35" height="40" rx="4" fill="#ef4444" opacity="0.7"/>
  <rect x="260" y="175" width="45" height="25" rx="4" fill="#8b5cf6" opacity="0.7"/>
  <text x="200" y="285" text-anchor="middle" fill="#e5e7eb" font-family="Arial, sans-serif" font-size="14" font-weight="bold">Interactive GIS Tools</text>
</svg>